<?xml version="1.0" encoding="UTF-8"?>
<!DOCTYPE svg PUBLIC "-//W3C//DTD SVG 1.1//EN" "http://www.w3.org/Graphics/SVG/1.1/DTD/svg11.dtd">
<!-- Creator: CorelDRAW X6 -->
<?xml-stylesheet href="Slate Staffing.css" type="text/css"?>
<svg xmlns="http://www.w3.org/2000/svg" xml:space="preserve" width="469px" height="86px" version="1.1" style="shape-rendering:geometricPrecision; text-rendering:geometricPrecision; image-rendering:optimizeQuality; fill-rule:evenodd; clip-rule:evenodd"
viewBox="0 0 46900 8582"
 xmlns:xlink="http://www.w3.org/1999/xlink">
 <g id="Слой_x0020_1">
  <metadata id="CorelCorpID_0Corel-Layer"/>
  <path class="fil0" d="M622 6027c5,170 15,301 30,393 15,93 42,174 82,244 65,125 160,221 285,288 125,68 272,102 442,102 145,0 281,-26 409,-75 127,-50 237,-120 329,-210 93,-90 165,-195 217,-315 53,-120 79,-250 79,-390 0,-239 -76,-452 -228,-637 -153,-184 -404,-349 -753,-494l-143 -60c-459,-195 -788,-411 -985,-648 -197,-237 -296,-518 -296,-843 0,-185 37,-360 112,-525 75,-165 176,-307 304,-427 127,-120 277,-215 449,-285 173,-69 359,-104 559,-104 584,0 1024,289 1318,869l-584 187c-5,-330 -65,-563 -180,-700 -115,-138 -307,-207 -577,-207 -135,0 -260,22 -375,64 -115,43 -214,103 -299,180 -85,77 -151,169 -199,273 -47,105 -71,220 -71,345 0,200 64,369 191,506 127,137 341,276 641,416l210 97c479,225 826,463 1041,716 215,252 322,558 322,918 0,210 -40,407 -120,592 -80,185 -187,344 -322,479 -135,135 -293,243 -476,322 -182,80 -378,120 -588,120 -310,0 -587,-82 -832,-247 -244,-165 -449,-407 -614,-727l622 -217zm3889 1086l-615 0 0 -5342 615 0 0 5342zm2990 -734c-85,250 -223,445 -412,585 -190,139 -410,209 -660,209 -145,0 -278,-25 -401,-75 -122,-49 -228,-117 -318,-202 -90,-85 -161,-187 -214,-307 -52,-120 -78,-250 -78,-390 0,-190 37,-354 112,-494 75,-140 193,-266 356,-379 162,-112 373,-214 633,-307 260,-92 575,-183 944,-273l0 -405c0,-155 -12,-283 -37,-386 -25,-102 -63,-182 -113,-240 -50,-57 -113,-97 -191,-120 -77,-22 -171,-33 -281,-33 -509,0 -764,319 -764,959l-562 -158c130,-299 311,-529 543,-689 232,-160 506,-240 821,-240 274,0 515,61 723,184 207,122 346,288 416,498 25,80 42,165 52,255 10,90 15,227 15,412l0 1693c0,230 14,379 41,446 28,68 91,102 191,102 65,0 138,-30 218,-90l0 164c-95,50 -190,75 -285,75 -415,0 -659,-264 -734,-794l-15 0zm-38 -1461c-310,80 -556,152 -738,217 -182,65 -323,139 -423,221 -100,83 -165,181 -195,296 -30,115 -45,260 -45,435l0 210c0,254 37,434 112,539 75,105 203,158 382,158 150,0 293,-48 428,-143 135,-95 242,-225 322,-390 60,-119 101,-245 123,-378 23,-132 34,-318 34,-558l0 -607zm3619 1738c-120,190 -248,328 -386,412 -137,85 -295,128 -475,128 -175,0 -331,-40 -469,-120 -137,-80 -241,-192 -311,-337 -25,-50 -45,-98 -60,-143 -15,-45 -26,-95 -33,-150 -8,-54 -13,-121 -15,-198 -3,-77 -4,-174 -4,-289l0 -2277 -637 0 0 -165 659 0 45 -1087 555 0 0 1087 959 0 0 165 -944 0 0 2660c0,264 25,444 75,539 50,95 147,143 292,143 115,0 221,-38 319,-113 97,-75 196,-192 295,-352l135 97zm3177 -509c-129,335 -310,593 -543,775 -232,183 -506,274 -820,274 -225,0 -435,-49 -630,-146 -195,-98 -366,-230 -513,-397 -147,-168 -262,-365 -345,-592 -82,-228 -123,-471 -123,-731 0,-260 42,-505 127,-734 85,-230 200,-431 345,-603 145,-173 314,-309 509,-409 195,-100 402,-150 622,-150 400,0 722,145 967,435 245,290 387,719 427,1289l-2233 0 0 629c0,230 20,423 60,581 40,157 99,285 176,382 77,97 171,169 281,214 110,45 235,67 375,67 254,0 478,-80 670,-240 193,-160 351,-394 476,-704l172 60zm-659 -1169l0 -375c0,-694 -242,-1041 -727,-1041 -269,0 -474,100 -614,299 -140,200 -210,487 -210,862l0 255 1551 0zm10895 1049c5,170 15,301 30,393 15,93 43,174 83,244 65,125 160,221 284,288 125,68 273,102 443,102 144,0 280,-26 408,-75 127,-50 237,-120 330,-210 92,-90 164,-195 217,-315 52,-120 79,-250 79,-390 0,-239 -77,-452 -229,-637 -152,-184 -403,-349 -753,-494l-142 -60c-460,-195 -788,-411 -986,-648 -197,-237 -296,-518 -296,-843 0,-185 38,-360 113,-525 75,-165 176,-307 303,-427 127,-120 277,-215 450,-285 172,-69 358,-104 558,-104 584,0 1024,289 1319,869l-585 187c-5,-330 -65,-563 -179,-700 -115,-138 -308,-207 -578,-207 -134,0 -259,22 -374,64 -115,43 -215,103 -300,180 -85,77 -151,169 -199,273 -47,105 -71,220 -71,345 0,200 64,369 191,506 128,137 341,276 641,416l210 97c480,225 827,463 1041,716 215,252 323,558 323,918 0,210 -40,407 -120,592 -80,185 -188,344 -322,479 -135,135 -294,243 -476,322 -183,80 -379,120 -588,120 -310,0 -587,-82 -832,-247 -245,-165 -450,-407 -615,-727l622 -217zm5066 629c-120,190 -249,328 -386,412 -138,85 -296,128 -476,128 -175,0 -331,-40 -468,-120 -138,-80 -241,-192 -311,-337 -25,-50 -45,-98 -60,-143 -15,-45 -27,-95 -34,-150 -8,-54 -12,-121 -15,-198 -2,-77 -4,-174 -4,-289l0 -2277 -637 0 0 -165 660 0 45 -1087 554 0 0 1087 959 0 0 165 -944 0 0 2660c0,264 25,444 75,539 50,95 147,143 292,143 115,0 221,-38 319,-113 97,-75 196,-192 296,-352l135 97zm2390 -277c-85,250 -222,445 -412,585 -190,139 -410,209 -659,209 -145,0 -279,-25 -401,-75 -123,-49 -229,-117 -319,-202 -90,-85 -161,-187 -213,-307 -53,-120 -79,-250 -79,-390 0,-190 37,-354 112,-494 75,-140 194,-266 356,-379 163,-112 374,-214 633,-307 260,-92 575,-183 945,-273l0 -405c0,-155 -13,-283 -38,-386 -25,-102 -62,-182 -112,-240 -50,-57 -114,-97 -191,-120 -78,-22 -171,-33 -281,-33 -510,0 -765,319 -765,959l-562 -158c130,-299 311,-529 544,-689 232,-160 505,-240 820,-240 275,0 516,61 723,184 208,122 346,288 416,498 25,80 42,165 53,255 10,90 15,227 15,412l0 1693c0,230 13,379 41,446 27,68 91,102 191,102 65,0 137,-30 217,-90l0 164c-95,50 -190,75 -285,75 -414,0 -659,-264 -734,-794l-15 0zm-37 -1461c-310,80 -556,152 -738,217 -183,65 -324,139 -424,221 -100,83 -165,181 -195,296 -30,115 -45,260 -45,435l0 210c0,254 38,434 113,539 75,105 202,158 382,158 150,0 292,-48 427,-143 135,-95 242,-225 322,-390 60,-119 101,-245 124,-378 22,-132 34,-318 34,-558l0 -607zm1880 -1401c30,-195 90,-390 180,-585 90,-195 201,-377 334,-547 132,-170 281,-321 445,-453 165,-132 335,-236 510,-311l0 697c-65,-65 -122,-109 -172,-131 -50,-23 -113,-34 -188,-34 -179,0 -309,62 -389,187 -80,125 -120,330 -120,615l0 562 764 0 0 165 -742 0 0 3431 -637 0 0 -3431 -636 0 0 -165 651 0zm2256 0c30,-195 90,-390 180,-585 90,-195 201,-377 333,-547 133,-170 281,-321 446,-453 165,-132 335,-236 510,-311l0 697c-65,-65 -123,-109 -173,-131 -50,-23 -112,-34 -187,-34 -180,0 -310,62 -390,187 -80,125 -120,330 -120,615l0 562 765 0 0 165 -742 0 0 3431 -637 0 0 -3431 -637 0 0 -165 652 0zm2555 3596l-622 0 0 -3596 622 0 0 3596zm-914 -4735c145,-35 272,-108 382,-218 110,-109 182,-237 217,-382l15 0c35,145 108,273 218,382 110,110 237,183 382,218l0 15c-145,35 -272,107 -382,217 -110,110 -183,237 -218,382l-15 0c-35,-145 -107,-272 -217,-382 -110,-110 -237,-182 -382,-217l0 -15zm2638 2000l15 0c84,-294 231,-525 438,-693 207,-167 451,-251 731,-251 254,0 478,68 670,203 193,134 326,314 401,539 30,95 51,199 64,311 12,113 19,274 19,483l0 2143 -637 0 0 -2525c0,-180 -4,-309 -12,-389 -7,-80 -23,-153 -48,-218 -40,-115 -110,-205 -210,-269 -100,-65 -217,-98 -352,-98 -335,0 -594,154 -776,461 -182,307 -273,741 -273,1300l0 1738 -637 0 0 -3596 607 0 0 861zm4690 2586c-100,0 -185,1 -254,3 -70,3 -133,9 -188,19 -55,10 -103,23 -146,38 -42,15 -89,34 -139,59 -139,70 -248,162 -325,274 -78,112 -117,236 -117,371 0,210 99,381 296,513 198,133 454,199 768,199 205,0 399,-27 581,-79 182,-52 344,-124 484,-213 139,-90 249,-194 329,-311 80,-118 120,-244 120,-379 0,-95 -21,-178 -64,-251 -42,-72 -98,-126 -168,-161 -40,-15 -78,-29 -113,-41 -35,-13 -80,-21 -134,-26 -55,-5 -125,-9 -210,-12 -85,-2 -193,-3 -323,-3l-397 0zm615 -2563c0,-295 -55,-508 -165,-641 -110,-132 -285,-198 -525,-198 -244,0 -422,68 -532,206 -109,137 -164,356 -164,655l0 383c0,289 55,500 164,633 110,132 285,198 525,198 245,0 422,-68 532,-206 110,-137 165,-356 165,-655l0 -375zm1266 -562c-60,-45 -125,-68 -195,-68 -140,0 -239,58 -299,173 -60,115 -90,302 -90,562l0 90c0,165 -38,319 -113,464 -75,145 -178,271 -311,379 -132,107 -288,191 -468,251 -180,60 -372,90 -577,90l-142 0c-25,-5 -47,-8 -64,-8 -18,0 -31,0 -41,0 -245,0 -434,33 -566,98 -132,64 -199,154 -199,269 0,50 8,90 23,120 15,30 45,54 90,71 45,18 108,29 191,34 82,5 191,8 326,8l907 0c139,0 257,1 352,3 95,3 177,9 247,19 70,10 132,24 187,41 55,18 110,41 165,71 135,70 242,172 322,304 80,132 120,281 120,446 0,185 -48,358 -146,521 -97,162 -232,303 -404,423 -173,120 -375,213 -607,281 -233,67 -484,101 -753,101 -210,0 -404,-20 -581,-60 -178,-40 -330,-95 -457,-165 -128,-70 -226,-152 -296,-247 -70,-95 -105,-200 -105,-315 0,-179 78,-342 236,-487 157,-145 386,-265 685,-359l0 -15c-259,-15 -459,-75 -599,-180 -140,-105 -210,-245 -210,-420 0,-360 263,-584 787,-674l0 -15c-524,-235 -787,-580 -787,-1034 0,-160 38,-311 113,-454 75,-142 177,-267 307,-374 130,-108 280,-193 449,-255 170,-62 353,-94 547,-94 300,0 562,72 787,214 225,142 387,336 487,581l15 0c5,-245 66,-444 184,-596 117,-153 278,-236 483,-251l0 457zm-27987 -3839l300 0 0 8013 -300 0 0 -8013z"/>
 </g>
</svg>
