<?xml version="1.0" encoding="UTF-8"?>
<!DOCTYPE svg PUBLIC "-//W3C//DTD SVG 1.1//EN" "http://www.w3.org/Graphics/SVG/1.1/DTD/svg11.dtd">
<!-- Creator: CorelDRAW X6 -->
<?xml-stylesheet href="Slate Staffing - 2.css" type="text/css"?>
<svg xmlns="http://www.w3.org/2000/svg" xml:space="preserve" width="554px" height="80px" version="1.1" style="shape-rendering:geometricPrecision; text-rendering:geometricPrecision; image-rendering:optimizeQuality; fill-rule:evenodd; clip-rule:evenodd"
viewBox="0 0 65968 9549"
 xmlns:xlink="http://www.w3.org/1999/xlink">
 <g id="Слой_x0020_1">
  <metadata id="CorelCorpID_0Corel-Layer"/>
  <path class="fil0" d="M741 7183c6,202 18,358 36,469 18,110 50,206 98,290 78,149 191,263 339,344 149,80 325,120 527,120 173,0 335,-30 487,-89 152,-60 283,-143 393,-250 110,-107 196,-232 259,-375 62,-143 94,-298 94,-465 0,-285 -91,-538 -273,-759 -181,-220 -480,-416 -897,-589l-170 -72c-548,-232 -939,-489 -1174,-772 -235,-283 -353,-618 -353,-1005 0,-220 45,-428 134,-625 89,-196 210,-366 362,-509 151,-143 330,-256 536,-339 205,-83 427,-125 665,-125 696,0 1220,345 1572,1036l-697 223c-6,-393 -77,-671 -214,-835 -137,-164 -366,-246 -688,-246 -161,0 -310,26 -446,76 -137,51 -256,122 -358,215 -101,92 -180,201 -236,326 -57,125 -85,262 -85,410 0,239 76,439 228,603 151,164 406,329 763,496l250 116c572,268 985,552 1241,853 256,300 384,665 384,1094 0,250 -47,485 -142,705 -96,220 -224,411 -384,572 -161,160 -350,289 -568,384 -217,95 -451,143 -701,143 -369,0 -699,-99 -991,-295 -292,-197 -536,-485 -732,-866l741 -259zm4778 1062l2054 0 0 233 -2903 0 0 -5921 849 0 0 5688zm2241 233l2456 -6055 205 0 2456 6055 -928 0 -822 -2081 -2233 0 -830 2081 -304 0zm2260 -4885l-18 0 -1018 2563 2045 0 -1009 -2563zm6545 -1036l0 214 -1732 0 0 5707 -848 0 0 -5707 -1733 0 0 -214 4313 0zm3689 214l-1947 0 0 2447 1723 0 0 232 -1723 0 0 2795 2072 0 0 233 -2921 0 0 -5921 2796 0 0 214zm12189 4412c6,202 18,358 36,469 18,110 51,206 98,290 78,149 191,263 340,344 149,80 324,120 527,120 172,0 334,-30 486,-89 152,-60 283,-143 393,-250 110,-107 197,-232 259,-375 63,-143 94,-298 94,-465 0,-285 -91,-538 -272,-759 -182,-220 -481,-416 -898,-589l-170 -72c-547,-232 -939,-489 -1174,-772 -235,-283 -353,-618 -353,-1005 0,-220 45,-428 134,-625 90,-196 210,-366 362,-509 152,-143 330,-256 536,-339 205,-83 427,-125 665,-125 697,0 1221,345 1572,1036l-697 223c-6,-393 -77,-671 -214,-835 -137,-164 -366,-246 -688,-246 -160,0 -309,26 -446,76 -137,51 -256,122 -357,215 -102,92 -181,201 -237,326 -57,125 -85,262 -85,410 0,239 76,439 228,603 152,164 406,329 763,496l250 116c572,268 986,552 1242,853 256,300 384,665 384,1094 0,250 -48,485 -143,705 -96,220 -223,411 -384,572 -161,160 -350,289 -567,384 -218,95 -451,143 -701,143 -369,0 -700,-99 -991,-295 -292,-197 -536,-485 -733,-866l741 -259zm7198 -4626l0 214 -1732 0 0 5707 -849 0 0 -5707 -1732 0 0 -214 4313 0zm-616 5921l2456 -6055 205 0 2456 6055 -929 0 -821 -2081 -2233 0 -830 2081 -304 0zm2259 -4885l-18 0 -1018 2563 2045 0 -1009 -2563zm6582 -822l-1965 0 0 2572 1742 0 0 232 -1742 0 0 2903 -848 0 0 -5921 2813 0 0 214zm3849 0l-1965 0 0 2572 1742 0 0 232 -1742 0 0 2903 -848 0 0 -5921 2813 0 0 214zm1884 5707l-830 0 0 -5921 830 0 0 5921zm5805 62l-3992 -4706 -18 0 0 4644 -286 0 0 -5984 224 0 3991 4706 18 0 0 -4643 286 0 0 5983 -223 0zm6564 -2768c-7,410 -73,789 -201,1134 -128,345 -304,644 -527,897 -224,253 -486,450 -786,590 -301,140 -630,210 -987,210 -381,0 -737,-79 -1067,-237 -331,-158 -619,-375 -866,-652 -247,-277 -441,-601 -581,-973 -140,-372 -210,-770 -210,-1193 0,-428 73,-831 219,-1210 146,-378 344,-708 594,-991 250,-283 543,-506 880,-670 336,-163 695,-245 1076,-245 488,0 921,131 1299,393 378,262 674,643 889,1143l-795 223c-30,-524 -163,-918 -398,-1183 -235,-265 -570,-398 -1004,-398 -322,0 -612,82 -871,246 -259,164 -460,391 -603,683 -47,95 -88,194 -120,295 -33,101 -60,211 -81,330 -21,119 -35,253 -44,402 -9,149 -14,316 -14,500l0 920c0,369 20,667 58,893 39,226 103,432 192,616 143,292 344,517 603,674 259,158 549,237 871,237 298,0 559,-68 786,-205 226,-137 405,-334 535,-590 84,-154 140,-327 170,-518 30,-190 45,-437 45,-741l0 -348 -1500 0 0 -232 2438 0zm-40178 -5772l358 0 0 9549 -358 0 0 -9549z"/>
 </g>
</svg>
