<?xml version="1.0" encoding="UTF-8"?>
<!DOCTYPE svg PUBLIC "-//W3C//DTD SVG 1.1//EN" "http://www.w3.org/Graphics/SVG/1.1/DTD/svg11.dtd">
<!-- Creator: CorelDRAW X6 -->
<?xml-stylesheet href="Slate Staffing Lato - 2.css" type="text/css"?>
<svg xmlns="http://www.w3.org/2000/svg" xml:space="preserve" width="614px" height="94px" version="1.1" style="fill: #3C3C3D !important; shape-rendering:geometricPrecision; text-rendering:geometricPrecision; image-rendering:optimizeQuality; fill-rule:evenodd; clip-rule:evenodd"
viewBox="0 0 79951 12226"
 xmlns:xlink="http://www.w3.org/1999/xlink">
 <g id="Слой_x0020_1">
  <metadata id="CorelCorpID_0Corel-Layer"/>
  <path class="fil0" d="M4150 4084c-29,48 -60,84 -92,109 -33,24 -75,37 -127,37 -56,0 -119,-28 -193,-83 -73,-55 -165,-117 -278,-184 -112,-67 -247,-127 -405,-182 -158,-55 -350,-83 -575,-83 -211,0 -398,28 -561,84 -163,57 -298,136 -407,233 -109,98 -192,212 -247,344 -56,131 -83,275 -83,428 0,195 48,356 144,485 96,128 223,239 381,330 158,91 337,169 537,236 201,67 406,137 616,208 210,72 415,152 615,241 200,90 379,204 537,341 158,136 285,304 381,502 96,199 143,443 143,733 0,306 -52,592 -156,861 -104,268 -256,503 -456,701 -200,199 -446,355 -737,469 -292,114 -624,171 -995,171 -452,0 -864,-83 -1237,-247 -372,-165 -691,-388 -955,-669l273 -450c26,-37 59,-66 96,-91 38,-24 79,-37 124,-37 68,0 147,37 234,111 88,73 199,153 331,240 132,88 291,170 478,243 188,73 415,109 686,109 224,0 424,-31 600,-93 176,-62 326,-149 448,-262 122,-112 215,-246 280,-402 65,-156 97,-330 97,-522 0,-212 -47,-386 -143,-521 -96,-135 -223,-247 -379,-339 -156,-91 -334,-169 -534,-232 -200,-64 -405,-129 -615,-196 -210,-66 -415,-143 -615,-231 -201,-88 -380,-202 -536,-342 -156,-140 -282,-315 -377,-525 -96,-210 -145,-469 -145,-778 0,-248 49,-487 145,-718 95,-231 234,-436 416,-615 183,-179 409,-323 677,-430 269,-107 576,-161 925,-161 390,0 747,62 1069,187 322,124 604,304 845,540l-230 450zm2539 5102l3028 0 0 801 -3975 0 0 -7002 947 0 0 6201zm9829 801l-732 0c-85,0 -153,-21 -205,-64 -52,-42 -91,-96 -117,-161l-655 -1689 -3139 0 -654 1689c-23,59 -62,111 -118,156 -55,46 -123,69 -205,69l-732 0 2798 -7002 962 0 2797 7002zm-4584 -2593l2612 0 -1099 -2850c-72,-176 -142,-395 -210,-659 -36,133 -70,256 -104,368 -34,112 -68,211 -101,296l-1098 2845zm9589 -4419l0 801 -2261 0 0 6206 -947 0 0 -6206 -2270 0 0 -801 5478 0zm5308 10l0 771 -3360 0 0 2325 2720 0 0 742 -2720 0 0 2392 3360 0 0 772 -4312 0 0 -7002 4312 0zm12622 1099c-29,48 -60,84 -93,109 -32,24 -75,37 -127,37 -55,0 -118,-28 -192,-83 -73,-55 -166,-117 -278,-184 -112,-67 -247,-127 -405,-182 -158,-55 -350,-83 -575,-83 -211,0 -399,28 -561,84 -163,57 -298,136 -407,233 -109,98 -192,212 -248,344 -55,131 -83,275 -83,428 0,195 49,356 145,485 96,128 223,239 381,330 158,91 337,169 537,236 200,67 405,137 615,208 210,72 415,152 616,241 200,90 379,204 537,341 158,136 285,304 381,502 96,199 143,443 143,733 0,306 -52,592 -157,861 -104,268 -255,503 -455,701 -200,199 -446,355 -737,469 -292,114 -624,171 -995,171 -452,0 -864,-83 -1237,-247 -373,-165 -692,-388 -955,-669l273 -450c26,-37 59,-66 96,-91 38,-24 78,-37 124,-37 68,0 146,37 234,111 88,73 199,153 331,240 131,88 291,170 478,243 187,73 415,109 685,109 225,0 425,-31 601,-93 176,-62 325,-149 447,-262 123,-112 215,-246 280,-402 66,-156 98,-330 98,-522 0,-212 -47,-386 -143,-521 -96,-135 -223,-247 -379,-339 -157,-91 -334,-169 -534,-232 -200,-64 -405,-129 -615,-196 -210,-66 -415,-143 -616,-231 -200,-88 -379,-202 -535,-342 -156,-140 -282,-315 -378,-525 -96,-210 -145,-469 -145,-778 0,-248 49,-487 145,-718 96,-231 235,-436 417,-615 182,-179 408,-323 677,-430 269,-107 576,-161 924,-161 391,0 748,62 1070,187 322,124 604,304 844,540l-229 450zm6357 -1109l0 801 -2260 0 0 6206 -948 0 0 -6206 -2270 0 0 -801 5478 0zm6109 7012l-733 0c-84,0 -153,-21 -205,-64 -52,-42 -91,-96 -117,-161l-654 -1689 -3140 0 -654 1689c-23,59 -62,111 -117,156 -56,46 -124,69 -205,69l-733 0 2798 -7002 962 0 2798 7002zm-4585 -2593l2612 0 -1099 -2850c-71,-176 -141,-395 -209,-659 -36,133 -70,256 -105,368 -34,112 -68,211 -101,296l-1098 2845zm9780 -4409l0 771 -3359 0 0 2452 2871 0 0 771 -2871 0 0 3013 -952 0 0 -7007 4311 0zm5527 0l0 771 -3359 0 0 2452 2871 0 0 771 -2871 0 0 3013 -952 0 0 -7007 4311 0zm2339 7002l-947 0 0 -7002 947 0 0 7002zm2364 -7002c84,0 148,10 188,31 41,21 87,65 139,130l4052 5273c-9,-84 -16,-167 -19,-247 -3,-80 -5,-156 -5,-231l0 -4956 830 0 0 7002 -478 0c-75,0 -137,-13 -188,-39 -50,-26 -101,-70 -149,-132l-4048 -5269c6,82 11,162 14,240 4,78 5,149 5,215l0 4985 -830 0 0 -7002 489 0zm10014 6308c189,0 363,-8 521,-26 158,-17 306,-44 446,-79 140,-36 272,-78 395,-127 124,-51 248,-108 372,-171l0 -1550 -1084 0c-62,0 -111,-18 -149,-53 -37,-36 -57,-80 -57,-132l0 -537 2149 0 0 2690c-176,127 -358,238 -549,332 -190,95 -394,173 -610,236 -216,64 -449,111 -697,142 -247,31 -516,47 -805,47 -508,0 -974,-88 -1397,-262 -423,-174 -788,-418 -1093,-732 -306,-315 -544,-692 -715,-1132 -171,-439 -257,-923 -257,-1451 0,-534 85,-1021 252,-1460 168,-440 407,-817 718,-1132 311,-314 687,-558 1128,-730 441,-173 934,-259 1481,-259 277,0 534,21 771,62 238,40 459,99 663,177 203,77 390,171 563,280 173,111 334,234 483,373l-268 423c-56,86 -127,130 -215,130 -52,0 -109,-18 -171,-54 -81,-45 -172,-101 -273,-166 -101,-65 -223,-128 -368,-188 -145,-61 -316,-111 -513,-153 -197,-43 -431,-64 -701,-64 -394,0 -751,64 -1070,192 -319,129 -590,313 -815,552 -225,239 -397,529 -518,869 -120,340 -180,723 -180,1146 0,443 63,836 189,1183 125,347 301,641 528,882 228,241 499,425 811,552 313,127 657,190 1035,190zm-46632 -9293l898 0 0 12226 -898 0 0 -12226z"/>
 </g>
</svg>
