<?xml version="1.0" encoding="UTF-8"?>
<!DOCTYPE svg PUBLIC "-//W3C//DTD SVG 1.1//EN" "http://www.w3.org/Graphics/SVG/1.1/DTD/svg11.dtd">
<!-- Creator: CorelDRAW X6 -->
<?xml-stylesheet href="Slate Staffing Lato - 1.css" type="text/css"?>
<svg xmlns="http://www.w3.org/2000/svg" xml:space="preserve" width="474px" height="94px" version="1.1" style="shape-rendering:geometricPrecision; text-rendering:geometricPrecision; image-rendering:optimizeQuality; fill-rule:evenodd; clip-rule:evenodd"
viewBox="0 0 47608 9439"
 xmlns:xlink="http://www.w3.org/1999/xlink">
 <g id="Слой_x0020_1">
  <metadata id="CorelCorpID_0Corel-Layer"/>
  <path class="fil0" d="M3204 3152c-23,38 -47,66 -72,85 -25,18 -57,29 -98,29 -42,0 -91,-22 -148,-65 -56,-42 -128,-90 -215,-142 -87,-51 -191,-97 -313,-140 -122,-43 -270,-64 -443,-64 -163,0 -308,21 -434,65 -125,44 -230,104 -314,180 -84,75 -148,163 -191,265 -42,102 -64,212 -64,330 0,151 38,275 112,375 74,99 172,184 294,255 122,70 260,130 415,182 154,51 312,105 475,161 162,55 320,117 475,186 154,69 292,157 414,262 122,106 220,235 294,389 74,153 111,341 111,565 0,236 -40,457 -121,665 -80,207 -197,388 -352,541 -154,154 -344,274 -569,362 -225,88 -481,132 -768,132 -349,0 -667,-64 -954,-191 -288,-127 -535,-299 -738,-516l211 -347c20,-29 45,-52 74,-71 29,-18 60,-28 96,-28 52,0 113,28 181,85 67,57 153,118 255,186 101,68 225,131 369,187 145,57 320,84 529,84 173,0 328,-24 464,-71 135,-48 251,-116 345,-203 94,-86 166,-189 216,-310 51,-121 76,-255 76,-403 0,-164 -37,-298 -111,-402 -74,-105 -172,-191 -293,-262 -120,-70 -257,-130 -412,-179 -154,-49 -313,-100 -475,-151 -162,-52 -320,-111 -475,-178 -154,-68 -292,-156 -413,-264 -121,-108 -217,-244 -292,-406 -74,-162 -111,-362 -111,-601 0,-191 37,-375 111,-554 75,-178 181,-337 322,-475 141,-138 316,-249 523,-332 207,-82 445,-124 713,-124 302,0 577,48 826,145 249,95 466,235 652,417l-177 346zm1870 -998l0 5556 -671 0 0 -5556 671 0zm3988 5556l-298 0c-65,0 -118,-10 -158,-30 -41,-20 -67,-65 -80,-130l-75 -355c-101,90 -198,172 -294,243 -95,73 -196,134 -301,183 -106,48 -218,86 -337,111 -120,25 -253,38 -399,38 -148,0 -286,-21 -415,-63 -130,-41 -243,-104 -339,-187 -95,-83 -170,-189 -227,-317 -56,-127 -85,-277 -85,-452 0,-152 41,-298 124,-437 83,-141 217,-265 402,-375 185,-108 426,-197 725,-266 299,-69 665,-104 1097,-104l0 -301c0,-297 -63,-524 -190,-676 -127,-153 -315,-230 -564,-230 -163,0 -300,21 -412,62 -112,42 -209,88 -290,139 -82,52 -152,99 -211,140 -59,41 -118,63 -176,63 -45,0 -84,-12 -118,-35 -34,-24 -62,-53 -82,-88l-121 -211c211,-205 439,-359 683,-460 243,-102 514,-152 810,-152 214,0 403,35 569,105 166,71 306,169 419,294 113,126 198,278 256,458 58,178 87,374 87,588l0 2445zm-1742 -415c118,0 226,-11 324,-35 98,-24 191,-57 278,-101 87,-42 170,-95 249,-158 79,-62 156,-132 231,-211l0 -792c-309,0 -572,21 -788,59 -216,39 -392,90 -527,154 -136,63 -234,137 -296,222 -61,86 -93,181 -93,288 0,100 17,187 49,260 33,73 77,133 132,180 55,46 121,80 196,101 76,22 157,33 245,33zm3917 475c-302,0 -533,-84 -695,-252 -162,-169 -244,-411 -244,-729l0 -2339 -460 0c-40,0 -74,-12 -102,-36 -27,-24 -41,-60 -41,-111l0 -268 626 -80 154 -1180c5,-37 22,-69 49,-92 28,-24 63,-36 106,-36l339 0 0 1316 1093 0 0 487 -1093 0 0 2295c0,161 39,280 117,358 78,78 178,117 302,117 70,0 131,-10 183,-29 51,-19 95,-39 133,-62 38,-22 70,-44 97,-63 26,-18 49,-27 69,-27 35,0 67,21 94,65l196 324c-115,107 -255,190 -418,252 -164,60 -332,90 -505,90zm3166 -3943c229,0 440,39 633,116 194,76 361,187 502,331 140,145 251,325 330,537 79,212 118,455 118,728 0,105 -11,175 -34,211 -22,35 -65,52 -128,52l-2540 0c5,242 37,453 98,631 60,180 143,328 248,449 106,119 232,208 377,267 146,59 309,90 490,90 169,0 314,-21 436,-59 122,-39 226,-82 314,-127 88,-46 163,-87 222,-126 59,-40 109,-59 152,-59 55,0 98,21 128,64l188 246c-83,99 -182,186 -298,260 -115,74 -238,135 -370,183 -132,46 -269,82 -410,106 -140,24 -280,36 -418,36 -264,0 -507,-46 -729,-135 -222,-89 -415,-220 -577,-392 -162,-172 -289,-386 -379,-640 -91,-253 -136,-545 -136,-875 0,-267 42,-515 123,-747 82,-231 199,-432 352,-601 153,-170 341,-303 562,-400 221,-97 470,-146 746,-146zm15 498c-324,0 -579,93 -765,280 -186,186 -302,445 -347,775l2077 0c0,-156 -21,-298 -64,-426 -43,-129 -105,-241 -188,-334 -83,-94 -184,-167 -303,-219 -120,-51 -257,-76 -410,-76zm11222 -1173c-23,38 -47,66 -72,85 -25,18 -57,29 -98,29 -42,0 -91,-22 -148,-65 -57,-42 -128,-90 -215,-142 -87,-51 -191,-97 -313,-140 -122,-43 -270,-64 -443,-64 -164,0 -308,21 -434,65 -125,44 -230,104 -314,180 -84,75 -148,163 -191,265 -43,102 -64,212 -64,330 0,151 38,275 112,375 74,99 172,184 294,255 122,70 260,130 415,182 154,51 312,105 474,161 163,55 321,117 475,186 155,69 293,157 415,262 122,106 220,235 294,389 74,153 111,341 111,565 0,236 -40,457 -121,665 -80,207 -197,388 -352,541 -154,154 -344,274 -569,362 -225,88 -481,132 -768,132 -349,0 -667,-64 -955,-191 -287,-127 -534,-299 -737,-516l211 -347c20,-29 45,-52 74,-71 29,-18 60,-28 96,-28 52,0 113,28 181,85 67,57 153,118 255,186 101,68 225,131 369,187 144,57 320,84 529,84 173,0 328,-24 464,-71 135,-48 251,-116 345,-203 94,-86 166,-189 216,-310 51,-121 76,-255 76,-403 0,-164 -37,-298 -111,-402 -74,-105 -172,-191 -293,-262 -120,-70 -257,-130 -412,-179 -154,-49 -313,-100 -475,-151 -162,-52 -320,-111 -475,-178 -154,-68 -292,-156 -413,-264 -121,-108 -217,-244 -292,-406 -74,-162 -111,-362 -111,-601 0,-191 37,-375 111,-554 75,-178 181,-337 322,-475 141,-138 316,-249 523,-332 207,-82 445,-124 713,-124 302,0 577,48 826,145 249,95 466,235 652,417l-177 346zm2280 4618c-301,0 -532,-84 -694,-252 -162,-169 -244,-411 -244,-729l0 -2339 -460 0c-40,0 -74,-12 -102,-36 -27,-24 -41,-60 -41,-111l0 -268 626 -80 154 -1180c5,-37 21,-69 49,-92 28,-24 63,-36 106,-36l339 0 0 1316 1093 0 0 487 -1093 0 0 2295c0,161 39,280 117,358 78,78 178,117 301,117 71,0 132,-10 184,-29 51,-19 95,-39 133,-62 38,-22 70,-44 97,-63 26,-18 49,-27 69,-27 35,0 66,21 94,65l196 324c-116,107 -255,190 -418,252 -164,60 -332,90 -506,90zm4460 -60l-298 0c-65,0 -118,-10 -158,-30 -41,-20 -67,-65 -80,-130l-75 -355c-100,90 -198,172 -294,243 -95,73 -196,134 -301,183 -106,48 -218,86 -337,111 -120,25 -253,38 -399,38 -148,0 -286,-21 -415,-63 -130,-41 -243,-104 -338,-187 -96,-83 -171,-189 -228,-317 -56,-127 -85,-277 -85,-452 0,-152 41,-298 124,-437 83,-141 218,-265 402,-375 185,-108 426,-197 725,-266 299,-69 665,-104 1097,-104l0 -301c0,-297 -63,-524 -190,-676 -127,-153 -315,-230 -564,-230 -163,0 -300,21 -412,62 -112,42 -209,88 -290,139 -82,52 -152,99 -211,140 -59,41 -118,63 -176,63 -45,0 -84,-12 -118,-35 -34,-24 -62,-53 -82,-88l-121 -211c212,-205 439,-359 683,-460 244,-102 514,-152 810,-152 214,0 403,35 569,105 166,71 306,169 419,294 113,126 198,278 256,458 58,178 87,374 87,588l0 2445zm-1742 -415c118,0 226,-11 324,-35 98,-24 191,-57 278,-101 87,-42 170,-95 249,-158 79,-62 156,-132 231,-211l0 -792c-309,0 -572,21 -788,59 -216,39 -392,90 -527,154 -136,63 -234,137 -296,222 -61,86 -93,181 -93,288 0,100 17,187 49,260 33,73 77,133 132,180 56,46 121,80 196,101 76,22 157,33 245,33zm2910 419l0 -3248 -422 -51c-53,-12 -95,-32 -129,-59 -34,-26 -52,-65 -52,-115l0 -278 603 0 0 -368c0,-219 32,-412 93,-582 62,-170 150,-312 264,-428 114,-117 251,-205 412,-266 161,-60 342,-90 543,-90 171,0 329,26 475,79l-15 336c-3,50 -24,80 -64,90 -40,10 -97,15 -170,15l-117 0c-115,0 -219,15 -314,45 -94,31 -176,78 -243,146 -68,68 -120,156 -156,266 -37,110 -56,246 -56,409l0 348 1105 0 0 490 -1082 0 0 3261 -675 0zm2541 0l0 -3248 -422 -51c-53,-12 -96,-32 -130,-59 -33,-26 -51,-65 -51,-115l0 -278 603 0 0 -211c0,-234 36,-449 109,-643 73,-195 183,-362 328,-503 146,-141 328,-250 546,-328 217,-78 470,-117 758,-117 96,0 194,6 293,20 100,13 185,33 258,59l-23 346c-5,31 -20,51 -45,60 -25,9 -62,13 -109,13 -28,0 -57,0 -87,0 -30,0 -64,0 -102,0 -445,0 -768,91 -970,276 -202,185 -304,464 -304,836l0 192 2307 0 0 3751 -671 0 0 -3261 -1613 0 0 3261 -675 0zm4146 -4l0 -3823 400 0c95,0 156,47 181,140l53 416c166,-185 351,-333 556,-446 205,-113 441,-170 710,-170 209,0 393,35 553,104 160,70 293,168 400,294 106,127 187,281 242,459 55,179 83,376 83,592l0 2434 -671 0 0 -2434c0,-289 -65,-514 -197,-674 -132,-159 -334,-240 -606,-240 -198,0 -383,48 -555,144 -172,95 -332,226 -478,389l0 2815 -671 0zm5477 -3883c166,0 322,18 467,54 144,37 275,91 393,161l1036 0 0 250c0,83 -52,137 -158,160l-433 60c85,163 128,346 128,547 0,185 -35,355 -107,507 -72,152 -171,283 -298,391 -127,108 -277,191 -452,249 -175,58 -367,86 -576,86 -178,0 -346,-21 -505,-62 -80,51 -140,106 -182,167 -41,59 -63,118 -63,174 0,95 37,165 110,213 73,47 169,83 290,103 121,21 257,31 411,31 153,0 310,0 470,0 159,0 315,14 468,42 154,28 291,74 411,138 121,63 218,151 290,262 73,112 110,258 110,436 0,165 -40,326 -122,480 -82,156 -200,293 -353,415 -153,121 -341,217 -562,289 -221,73 -471,109 -750,109 -279,0 -523,-27 -732,-83 -210,-55 -385,-129 -523,-222 -138,-93 -241,-201 -311,-323 -69,-122 -104,-250 -104,-383 0,-189 61,-348 180,-480 119,-133 283,-238 491,-315 -108,-51 -193,-117 -258,-202 -64,-84 -96,-196 -96,-336 0,-54 10,-112 30,-171 20,-58 51,-117 93,-175 41,-56 92,-112 152,-164 60,-53 131,-100 211,-140 -188,-105 -335,-246 -442,-421 -107,-176 -161,-381 -161,-614 0,-187 36,-356 108,-509 72,-152 171,-283 299,-390 128,-106 281,-189 459,-247 177,-58 370,-87 581,-87zm1192 4081c0,-98 -27,-176 -80,-235 -52,-59 -124,-104 -214,-137 -91,-31 -195,-55 -313,-70 -118,-16 -243,-24 -374,-24 -130,0 -263,0 -399,0 -136,0 -265,-16 -388,-50 -144,68 -259,151 -348,249 -90,98 -135,215 -135,350 0,86 23,166 67,240 44,74 110,138 201,192 90,54 205,97 342,129 137,31 297,47 483,47 181,0 343,-16 487,-50 143,-33 265,-80 364,-142 99,-62 175,-134 227,-219 53,-85 80,-178 80,-280zm-1192 -2060c136,0 257,-19 361,-57 104,-38 191,-90 261,-158 71,-69 123,-150 159,-244 35,-96 52,-199 52,-313 0,-234 -70,-420 -212,-559 -142,-138 -349,-207 -621,-207 -269,0 -473,69 -615,207 -142,139 -214,325 -214,559 0,114 19,217 55,313 37,94 90,175 160,244 70,68 157,120 260,158 103,38 221,57 354,57zm-26809 -5848l693 0 0 9439 -693 0 0 -9439z"/>
 </g>
</svg>
